<?xml version="1.0" standalone="no"?>
<!DOCTYPE svg PUBLIC "-//W3C//DTD SVG 20010904//EN"
 "http://www.w3.org/TR/2001/REC-SVG-20010904/DTD/svg10.dtd">
<svg version="1.0" xmlns="http://www.w3.org/2000/svg"
 width="179.000000pt" height="281.000000pt" viewBox="0 0 179.000000 281.000000"
 preserveAspectRatio="xMidYMid meet">

<g transform="translate(0.000000,281.000000) scale(0.100000,-0.100000)"
fill="#000000" stroke="none">
<path d="M676 2800 c-32 -5 -61 -12 -63 -14 -3 -2 -6 -27 -7 -55 -3 -39 -37
-160 -52 -179 -1 -2 -13 3 -26 12 -13 8 -44 22 -68 31 -25 8 -59 23 -76 32
-53 28 -96 12 -167 -63 -34 -36 -80 -76 -103 -89 -34 -20 -49 -39 -77 -97 -34
-71 -34 -74 -18 -102 9 -16 30 -38 48 -50 17 -11 38 -35 47 -53 8 -18 34 -44
56 -59 l41 -27 15 21 c41 59 45 1 8 -119 -41 -136 -26 -211 66 -327 24 -31 48
-52 60 -52 17 0 20 -7 20 -39 0 -21 9 -105 20 -187 22 -157 20 -228 -7 -297
-12 -28 -23 -39 -43 -44 -22 -4 -29 -12 -35 -39 -5 -30 -42 -66 -54 -53 -2 2
-10 -13 -17 -35 -12 -33 -12 -37 1 -32 8 3 17 1 20 -4 4 -6 0 -10 -8 -10 -69
0 -145 -177 -102 -234 8 -11 22 -44 31 -75 30 -106 74 -157 130 -151 38 4 44
-1 50 -41 8 -46 28 -60 49 -33 13 18 14 18 15 2 0 -10 5 -18 10 -18 6 0 9 5 8
11 -5 19 20 21 25 2 4 -17 5 -17 6 0 1 24 21 22 21 -3 0 -15 7 -20 26 -20 14
0 23 4 19 10 -3 5 -12 7 -20 3 -9 -3 -15 1 -15 10 0 9 10 15 25 15 18 0 25 -6
25 -19 0 -18 15 -19 381 -19 209 0 378 4 375 8 -3 5 -25 7 -50 6 -31 -2 -46 2
-46 10 0 8 19 12 60 13 55 0 60 -1 55 -18 -4 -11 -2 -19 4 -19 6 0 11 9 11 20
0 27 18 25 23 -3 4 -21 4 -21 6 -1 1 16 8 22 26 22 15 0 25 -6 25 -14 0 -8 10
-14 25 -14 28 0 47 34 39 68 -5 16 1 21 31 26 20 4 34 10 31 13 -3 3 14 18 38
33 54 35 78 69 114 162 24 62 27 78 16 92 -6 10 -20 50 -30 89 -13 56 -25 79
-50 103 -18 18 -36 43 -39 57 -9 34 -41 61 -97 82 -60 22 -78 42 -94 107 l-12
53 -1 -64 c-1 -75 -16 -73 -37 6 -7 27 -13 38 -13 25 -2 -57 21 -112 55 -133
39 -24 64 -56 64 -81 0 -27 -19 -21 -31 10 l-11 27 -11 -22 c-14 -31 -20 -29
-60 17 -103 121 -157 326 -142 538 8 104 15 110 64 60 44 -45 61 -112 61 -235
0 -57 4 -103 9 -103 4 0 11 46 15 103 4 56 10 113 14 127 6 25 6 25 13 -5 4
-16 8 -48 9 -70 l2 -40 12 55 c18 79 33 122 81 230 52 117 97 241 90 248 -3 3
-13 -2 -23 -11 -25 -22 -49 -21 -62 2 -12 24 2 69 25 77 25 10 28 -2 9 -30
-21 -34 -12 -44 21 -22 34 22 32 56 -5 144 -16 39 -30 76 -30 81 0 19 18 12
47 -19 l29 -31 91 89 c73 71 93 96 98 126 6 29 3 44 -12 64 -10 14 -26 28 -34
30 -8 3 -2 -9 14 -25 28 -30 36 -63 15 -63 -7 0 -26 11 -43 24 l-30 24 18 36
c9 20 17 45 17 56 0 25 -51 60 -87 59 -28 -1 -28 -1 4 -9 18 -4 40 -13 48 -20
14 -12 12 -16 -17 -34 -31 -20 -31 -21 -10 -24 33 -5 27 -22 -8 -22 -34 0 -39
-13 -12 -32 38 -26 94 -79 89 -84 -2 -3 -31 5 -63 17 -34 13 -79 22 -106 21
-46 -1 -48 0 -48 28 0 38 25 62 56 54 14 -4 24 -2 24 5 0 6 -10 11 -23 11 -52
0 -73 50 -27 65 9 3 25 14 34 24 16 18 16 21 1 51 -15 29 -74 75 -84 64 -2 -2
12 -19 32 -38 35 -32 47 -56 28 -56 -5 0 -48 -29 -96 -65 -48 -36 -89 -65 -91
-65 -9 0 -3 33 11 60 14 26 13 29 -10 44 -32 21 -48 20 -96 -5 -50 -25 -62
-17 -27 17 17 18 40 28 70 31 35 4 47 11 60 33 10 18 29 31 54 38 35 9 36 10
11 11 -17 1 -53 -14 -87 -35 -81 -50 -117 -46 -148 17 -12 25 -31 76 -42 114
-11 37 -21 69 -23 71 -8 9 -419 12 -471 4z m344 -26 c0 -12 5 -15 23 -9 33 11
103 18 95 10 -3 -4 0 -29 8 -57 23 -76 13 -85 -43 -42 -57 43 -61 51 -37 70
17 13 15 13 -16 1 -56 -21 -91 -2 -58 31 17 17 28 15 28 -4z m-277 -14 c31
-17 37 -17 37 -5 0 18 16 20 26 3 10 -16 -24 -38 -60 -38 -17 0 -38 -5 -46
-10 -13 -9 -13 -11 0 -20 37 -24 120 8 120 46 0 19 10 18 25 -3 19 -25 47 -10
39 22 -4 15 -2 25 5 25 6 0 11 -11 11 -24 0 -18 7 -25 26 -29 23 -4 25 -2 21
19 -3 16 0 24 10 24 9 0 12 -7 7 -24 -5 -22 -1 -26 36 -37 23 -7 64 -32 90
-56 26 -24 55 -43 63 -43 9 0 23 -10 31 -22 21 -30 23 -203 2 -211 -8 -3 -15
-29 -19 -67 -4 -50 -11 -68 -33 -91 -32 -34 -44 -30 -44 16 0 24 6 38 20 45
17 9 20 21 20 70 0 32 7 88 15 124 9 36 13 77 9 91 -8 30 -17 25 -22 -13 -4
-34 -19 -52 -43 -52 -26 0 -34 36 -14 66 22 34 12 69 -23 83 -61 25 -123 -19
-102 -73 5 -15 10 -32 10 -37 0 -14 -45 -29 -69 -22 -18 5 -21 10 -15 40 5 27
2 39 -17 59 -12 13 -32 24 -43 23 -20 0 -20 -1 2 -11 31 -15 30 -56 -2 -64
-35 -8 -68 4 -64 24 2 9 17 20 33 23 l30 7 -30 2 c-26 1 -27 3 -10 10 20 8 20
9 -1 9 -24 1 -64 -33 -64 -54 0 -8 6 -15 13 -15 7 0 23 -7 36 -16 l23 -16 -28
-29 c-15 -16 -31 -29 -36 -29 -4 0 -18 16 -30 35 -25 37 -38 44 -38 20 0 -18
-21 -20 -38 -3 -27 27 -8 103 23 92 16 -6 24 25 14 51 -4 11 -8 39 -8 63 -1
41 0 42 32 42 18 0 49 -9 70 -20z m127 -12 c0 -5 -4 -8 -10 -8 -5 0 -10 10
-10 23 0 18 2 19 10 7 5 -8 10 -18 10 -22z m148 -124 c-37 -20 -35 -25 8 -22
21 2 39 -2 41 -8 5 -14 -49 -37 -74 -32 -42 8 -14 78 31 78 19 -1 18 -3 -6
-16z m-617 -30 c7 -9 13 -35 12 -58 -5 -116 -9 -146 -20 -157 -8 -8 -9 -18 0
-35 17 -38 -3 -45 -47 -17 l-39 25 24 14 c21 11 22 13 7 19 -24 10 -23 31 2
38 15 4 20 14 20 41 0 45 -18 48 -22 4 -2 -23 -9 -34 -22 -36 -12 -3 -16 0
-11 7 10 18 -19 56 -54 71 -36 14 -39 30 -12 54 45 41 139 58 162 30z m79 -29
c0 -8 -6 -15 -14 -15 -7 0 -19 7 -26 15 -11 13 -8 15 14 15 16 0 26 -5 26 -15z
m68 -51 c25 -17 30 -39 7 -30 -19 7 -19 -7 -1 -42 25 -50 29 -72 11 -72 -9 0
-18 12 -21 30 -5 21 -19 38 -50 57 -68 43 -70 73 -6 73 21 0 48 -7 60 -16z
m427 -14 c-18 -19 -17 -20 1 -20 11 0 26 6 33 13 12 10 13 9 7 -7 -7 -19 -6
-19 14 -1 17 16 20 16 20 2 0 -9 -8 -21 -17 -26 -17 -10 -17 -10 1 -11 25 0
13 -12 -27 -27 -29 -10 -29 -12 -8 -12 13 -1 44 10 67 24 l44 26 -6 -48 c-8
-65 -10 -70 -33 -82 -28 -16 -34 2 -11 32 30 37 26 47 -14 35 -29 -9 -45 -7
-96 11 l-60 22 -27 -20 c-32 -26 -59 -27 -73 -2 -15 30 -14 31 42 24 35 -4 49
-3 44 5 -3 6 2 13 11 15 13 3 10 5 -7 6 -14 1 -32 6 -40 12 -11 8 -7 9 18 5
20 -4 31 -2 27 4 -3 6 -15 10 -25 10 -10 0 -22 5 -26 11 -5 8 3 9 27 3 50 -12
88 -9 107 9 22 23 29 11 7 -13z m-355 -5 c7 -8 21 -15 31 -15 23 0 23 -3 4
-40 -15 -29 -38 -39 -49 -22 -3 5 -8 28 -12 50 -7 44 3 54 26 27z m720 -16
c-11 -19 -65 -49 -90 -49 -19 0 -10 29 12 41 21 11 64 26 81 28 4 1 3 -8 -3
-20z m-1086 1 c34 -13 33 -36 -1 -48 l-28 -10 27 -10 c23 -9 27 -19 33 -67 14
-105 -14 -192 -68 -219 -56 -27 -62 15 -7 46 17 10 33 24 36 33 8 19 -11 65
-26 65 -6 0 -3 -11 6 -25 19 -29 9 -33 -18 -8 -29 26 -23 61 15 77 l32 13 -40
11 c-58 17 -65 15 -65 -15 0 -31 -26 -63 -52 -63 -10 0 -18 1 -18 3 0 13 56
117 73 135 19 21 20 24 5 39 -16 15 -19 15 -44 -1 -19 -13 -25 -14 -22 -4 8
23 70 58 104 58 18 0 44 -4 58 -10z m479 -56 c-5 -30 -1 -40 27 -69 42 -44 34
-54 -19 -24 -37 20 -41 27 -41 60 0 47 8 69 25 69 10 0 12 -10 8 -36z m112 26
c3 -6 -1 -7 -9 -4 -18 7 -21 14 -7 14 6 0 13 -4 16 -10z m-362 -12 c28 -15 46
-38 47 -60 0 -25 -10 -23 -53 13 -53 43 -49 77 6 47z m1013 0 c4 -6 -4 -19
-19 -30 -15 -11 -27 -26 -27 -34 0 -8 -7 -14 -15 -14 -24 0 -18 31 12 62 29
31 38 34 49 16z m-156 -27 c-14 -27 -66 -46 -93 -33 -20 9 -18 12 32 35 58 28
77 27 61 -2z m-665 -42 c9 -17 14 -37 11 -45 -9 -24 -43 -16 -66 15 l-20 30
22 15 c31 22 35 21 53 -15z m-565 9 c0 -35 -60 -101 -77 -85 -10 10 7 57 27
77 22 22 50 26 50 8z m1390 -24 c0 -18 -9 -29 -35 -41 -19 -9 -37 -25 -41 -35
-6 -22 -23 -20 -38 4 -14 23 9 48 44 48 22 0 30 6 39 31 12 34 31 30 31 -7z
m-545 10 c32 -33 -28 -59 -76 -34 -22 12 -25 36 -6 43 26 11 66 6 82 -9z
m-466 -20 c32 -26 41 -54 19 -54 -22 1 -82 56 -74 68 11 18 21 15 55 -14z
m869 18 c10 -7 8 -12 -5 -25 -20 -18 -73 -40 -80 -33 -12 11 11 46 35 55 35
12 35 12 50 3z m-496 -32 c38 -37 62 -38 111 -4 21 14 41 24 43 21 2 -2 1 -22
-4 -43 l-8 -39 -94 0 -94 1 -10 31 c-9 34 -3 63 14 63 5 0 24 -13 42 -30z
m376 11 c3 -8 -1 -12 -9 -9 -7 2 -15 10 -17 17 -3 8 1 12 9 9 7 -2 15 -10 17
-17z m-663 -22 c4 -11 4 -23 1 -26 -8 -9 -36 17 -36 33 0 22 28 16 35 -7z
m-206 -55 c21 -27 28 -64 12 -64 -9 0 -71 91 -71 104 0 12 38 -13 59 -40z
m867 32 c3 -8 -2 -26 -11 -40 -10 -14 -13 -26 -7 -26 6 0 14 5 17 10 14 23 27
9 21 -22 -7 -38 -29 -63 -45 -54 -12 8 -15 103 -5 130 8 20 23 21 30 2z m-759
-17 c20 -13 44 -19 59 -16 31 6 54 -24 54 -71 0 -58 -38 -98 -54 -56 -10 26
-7 34 14 34 26 0 25 12 -1 36 -17 16 -22 16 -29 4 -6 -8 -10 -25 -10 -37 0
-30 -11 -29 -52 4 -40 34 -47 42 -54 70 -14 54 16 67 73 32z m1103 8 c0 -8 -9
-22 -20 -32 -28 -26 -26 -32 25 -63 43 -26 61 -62 31 -62 -26 0 -101 71 -100
94 1 11 2 31 3 43 1 28 61 47 61 20z m-862 -13 c18 -8 32 -19 32 -23 0 -4 -13
-19 -28 -34 l-28 -27 -32 44 c-18 24 -32 47 -32 50 0 12 58 6 88 -10z m632 4
c0 -14 -40 -58 -52 -58 -14 0 -9 33 9 52 18 20 43 24 43 6z m137 -25 c-19 -34
-77 -91 -77 -74 0 22 29 69 56 90 33 26 40 21 21 -16z m176 -30 c12 -7 8 -33
-8 -39 -15 -6 -75 31 -75 47 0 9 64 3 83 -8z m-280 -16 c-4 -7 -15 -18 -25
-25 -27 -19 -22 -32 12 -32 34 0 39 -14 10 -30 -35 -19 -23 -32 22 -25 l41 7
-34 -41 -34 -41 -17 21 c-10 12 -18 29 -18 38 0 9 -9 31 -20 49 -19 31 -19 34
-3 58 17 26 51 46 66 37 4 -2 4 -10 0 -16z m-1229 -2 c15 -11 17 -18 9 -26
-16 -16 -43 -3 -43 21 0 24 8 25 34 5z m240 -25 l86 -40 0 -42 -1 -43 -30 34
c-25 27 -36 32 -60 27 -20 -4 -29 -2 -29 8 0 7 -14 32 -30 54 -17 23 -28 42
-26 42 2 0 42 -18 90 -40z m676 20 c0 -28 -22 -71 -34 -67 -18 6 -18 53 -1 71
22 21 35 20 35 -4z m-243 -5 c59 -25 95 -65 58 -65 -9 0 -27 12 -40 26 -24 25
-25 26 -25 6 0 -46 -38 -35 -66 20 -14 27 -14 28 11 28 14 0 42 -7 62 -15z
m163 -15 c20 -13 2 -44 -29 -48 -18 -3 -21 2 -21 27 0 33 19 41 50 21z m486
-56 c-4 -19 -11 -32 -17 -29 -13 8 -11 42 3 68 15 29 22 8 14 -39z m-816 15
c-12 -22 -40 -26 -40 -4 0 15 30 36 42 29 5 -3 3 -14 -2 -25z m611 -12 c-19
-19 -13 -39 9 -32 23 7 26 -11 6 -37 -19 -25 -23 -23 -45 23 l-20 41 27 26
c24 24 27 25 30 8 2 -10 -1 -23 -7 -29z m-81 13 c0 -5 -7 -10 -15 -10 -8 0
-15 5 -15 10 0 6 7 10 15 10 8 0 15 -4 15 -10z m-847 -55 c25 -51 26 -58 13
-83 -7 -15 -24 -60 -37 -99 -13 -40 -27 -73 -31 -73 -16 0 -48 40 -48 60 0 23
10 26 28 8 22 -22 25 2 4 32 -21 28 -29 60 -15 60 3 0 15 -7 25 -17 21 -18 23
-6 6 32 -13 30 -5 43 17 25 27 -22 31 0 7 40 -20 35 -21 70 -3 70 4 0 19 -25
34 -55z m385 28 c-3 -19 -53 -51 -63 -42 -10 10 5 36 28 47 32 15 39 14 35 -5z
m392 -13 c-18 -11 -24 -6 -16 16 5 14 9 15 19 5 9 -9 9 -14 -3 -21z m-580 -4
c9 -12 8 -33 -6 -100 -10 -47 -22 -86 -26 -86 -17 0 -27 38 -18 71 5 19 12 55
15 82 6 49 14 57 35 33z m280 -4 c0 -5 -11 -19 -25 -32 -14 -13 -25 -30 -25
-38 0 -19 -24 -9 -28 12 -5 22 35 66 60 66 10 0 18 -4 18 -8z m380 -7 c7 -9
10 -18 7 -22 -8 -7 -37 15 -37 28 0 14 16 11 30 -6z m320 -10 c0 -14 -4 -25
-10 -25 -5 0 -10 11 -10 25 0 14 5 25 10 25 6 0 10 -11 10 -25z m-1077 -16
c21 -37 22 -68 2 -75 -11 -5 -12 -10 -4 -26 8 -15 7 -24 -4 -36 -8 -9 -17 -43
-19 -74 -5 -57 -16 -85 -25 -60 -3 7 -18 19 -34 27 -31 16 -44 63 -14 51 8 -3
22 -9 30 -12 22 -9 18 16 -7 43 l-21 23 32 13 32 13 -21 26 c-27 34 -26 38 11
38 l30 0 -20 26 c-12 15 -21 33 -21 40 0 26 35 14 53 -17z m450 14 c-8 -25
-64 -83 -80 -83 -23 0 -14 41 16 71 33 33 74 40 64 12z m96 2 c30 -15 57 -70
40 -81 -5 -3 -28 12 -49 34 -57 57 -52 79 9 47z m80 1 c34 -18 55 -42 43 -50
-11 -7 -74 34 -80 52 -5 16 3 15 37 -2z m85 -2 c16 -6 23 -44 8 -44 -12 0 -32
23 -32 37 0 15 2 15 24 7z m-524 -28 c0 -16 -18 -31 -27 -22 -8 8 5 36 17 36
5 0 10 -6 10 -14z m840 0 c0 -7 -7 -19 -15 -26 -17 -14 -20 -40 -5 -40 5 0 14
9 20 20 15 27 30 25 30 -4 0 -50 -55 -58 -85 -12 -18 28 -12 50 18 64 30 15
37 14 37 -2z m-144 -12 c-3 -9 -6 -18 -6 -20 0 -2 -7 -4 -15 -4 -18 0 -19 12
-3 28 17 17 31 15 24 -4z m-622 -27 c-13 -22 -37 -47 -46 -47 -17 0 -7 39 14
54 23 16 42 12 32 -7z m284 -15 c30 -33 35 -46 37 -95 2 -31 -1 -57 -6 -57 -5
0 -9 3 -9 8 0 4 -16 18 -36 31 -19 13 -40 33 -46 44 -9 17 -7 19 13 15 13 -3
32 -9 43 -13 16 -7 17 -6 7 13 -6 11 -24 23 -41 27 -35 8 -44 18 -35 45 10 30
35 24 73 -18z m252 1 c0 -24 -25 -9 -28 17 -3 21 -2 22 12 11 9 -7 16 -20 16
-28z m-124 -10 c22 -24 24 -29 9 -31 -19 -4 -55 25 -55 45 0 21 19 15 46 -14z
m-216 7 c0 -15 -81 -91 -91 -84 -17 10 -9 35 24 64 31 29 67 40 67 20z m288
-12 c5 -25 -25 -23 -38 3 -10 18 -9 20 12 17 12 -2 24 -11 26 -20z m-418 -2
c0 -19 -29 -48 -41 -40 -5 3 -8 8 -6 12 2 4 7 15 10 25 8 20 37 23 37 3z m571
-30 c-5 -11 -13 -22 -19 -24 -15 -5 -15 23 -1 50 14 26 31 5 20 -26z m-730 1
c-16 -16 -26 0 -10 19 9 11 15 12 17 4 2 -6 -1 -17 -7 -23z m689 13 c0 -11 -4
-20 -9 -20 -14 0 -23 18 -16 30 10 17 25 11 25 -10z m-195 -42 c17 -20 23 -34
16 -36 -14 -5 -48 24 -62 50 -17 31 17 21 46 -14z m145 17 c0 -8 -4 -15 -9
-15 -5 0 -14 7 -21 15 -10 13 -9 15 9 15 12 0 21 -6 21 -15z m140 -12 c-1 -30
-25 -71 -36 -60 -10 9 14 87 26 87 6 0 10 -12 10 -27z m-690 -6 c0 -17 -29
-57 -41 -57 -15 0 -10 37 7 54 19 19 34 21 34 3z m484 -3 c18 -17 21 -34 7
-34 -12 0 -41 29 -41 41 0 14 17 11 34 -7z m-269 -12 c3 -11 26 -33 50 -51 42
-30 75 -71 58 -71 -14 0 -67 36 -103 69 -19 18 -36 29 -37 25 -8 -24 -44 -74
-53 -74 -14 0 -12 40 4 69 12 21 50 50 68 51 4 0 9 -8 13 -18z m521 -47 c-33
-51 -49 -20 -19 38 16 31 16 31 26 10 7 -17 6 -29 -7 -48z m-646 30 c0 -21
-41 -76 -52 -69 -11 7 -10 41 2 65 13 23 50 26 50 4z m460 -11 c0 -8 -7 -14
-15 -14 -8 0 -15 9 -15 20 0 13 5 18 15 14 8 -4 15 -12 15 -20z m-760 -5 c9
-16 8 -26 -4 -45 -16 -23 -15 -24 5 -21 18 2 21 -4 23 -40 3 -49 -2 -52 -32
-20 -34 36 -45 77 -27 97 8 9 13 25 9 34 -9 23 13 20 26 -5z m128 4 c-5 -25
-28 -28 -28 -4 0 12 6 21 16 21 9 0 14 -7 12 -17z m710 -29 c3 -26 -21 -76
-30 -64 -3 3 -3 27 0 53 5 53 25 60 30 11z m-224 -5 c14 -17 26 -35 26 -40 0
-27 -55 13 -65 49 -9 31 9 27 39 -9z m70 -1 c20 -28 20 -38 1 -38 -14 0 -35
29 -35 49 0 18 18 12 34 -11z m296 -44 c-30 -35 -41 -4 -12 36 l17 25 3 -23
c2 -13 -2 -30 -8 -38z m-840 5 c-12 -22 -30 -25 -30 -6 0 17 21 38 32 31 4 -3
3 -14 -2 -25z m-360 6 c6 -8 10 -22 8 -32 -3 -14 -8 -11 -21 15 -18 32 -9 44
13 17z m422 -2 c8 -33 3 -86 -8 -90 -12 -4 -26 70 -17 93 7 19 20 17 25 -3z
m546 -4 c-2 -6 -8 -10 -13 -10 -5 0 -11 4 -13 10 -2 6 4 11 13 11 9 0 15 -5
13 -11z m288 -16 c-8 -16 -18 -37 -22 -48 -7 -18 -8 -17 -12 8 -2 18 3 36 14
48 25 28 37 23 20 -8z m-1156 -51 c0 -23 -8 -44 -21 -58 l-22 -23 -18 36 c-22
42 -19 49 12 33 20 -11 21 -11 15 11 -4 13 -10 35 -13 48 -6 23 -6 23 21 6 20
-13 26 -25 26 -53z m430 56 c0 -16 -31 -48 -47 -48 -18 0 -16 20 4 42 18 20
43 24 43 6z m553 -46 l-18 -27 -3 23 c-4 29 31 75 36 48 2 -10 -5 -29 -15 -44z
m-463 36 c0 -16 -31 -48 -47 -48 -21 0 -15 26 10 43 27 19 37 21 37 5z m84 -4
c9 -8 14 -20 11 -24 -8 -13 -55 10 -55 27 0 18 25 16 44 -3z m126 -4 c21 -21
26 -40 12 -40 -9 0 -33 25 -46 48 -11 19 12 14 34 -8z m81 -16 c11 -14 10 -15
-11 -12 -13 1 -25 9 -28 16 -5 17 23 15 39 -4z m225 -49 c-22 -33 -52 -35 -35
-2 6 12 19 30 28 41 14 16 16 17 19 2 2 -10 -4 -28 -12 -41z m-174 30 c0 -5
-5 -11 -11 -13 -6 -2 -11 4 -11 13 0 9 5 15 11 13 6 -2 11 -8 11 -13z m46 -35
c-6 -56 -13 -69 -30 -52 -8 8 -8 23 2 56 17 62 34 59 28 -4z m-820 7 c15 -32
12 -40 -10 -32 -13 5 -38 45 -38 61 0 17 37 -6 48 -29z m180 22 c-2 -6 -8 -10
-13 -10 -5 0 -11 4 -13 10 -2 6 4 11 13 11 9 0 15 -5 13 -11z m-50 -23 c3 -12
-1 -17 -10 -14 -7 3 -15 13 -16 22 -3 12 1 17 10 14 7 -3 15 -13 16 -22z m332
17 c0 -10 -52 -63 -62 -63 -15 0 -8 21 17 45 23 24 45 33 45 18z m148 -10 c25
-22 41 -67 21 -61 -8 2 -20 17 -27 31 -8 16 -21 27 -33 27 -10 0 -19 5 -19 10
0 16 36 11 58 -7z m-293 -23 c-17 -17 -31 -26 -33 -20 -5 15 27 50 46 50 11 0
7 -9 -13 -30z m209 7 c12 -19 3 -32 -19 -24 -17 7 -21 51 -3 45 6 -2 16 -12
22 -21z m486 13 c0 -20 -24 -60 -36 -60 -10 0 -11 6 -3 26 5 15 12 31 15 35 7
12 24 11 24 -1z m-306 -16 c4 -11 1 -14 -11 -12 -9 2 -18 9 -21 16 -6 18 25
15 32 -4z m156 7 c0 -5 -7 -14 -15 -21 -12 -10 -15 -10 -15 2 0 8 3 18 7 21 9
10 23 9 23 -2z m-800 -20 c0 -17 -12 -41 -21 -41 -10 0 -12 33 -2 43 9 10 23
9 23 -2z m-90 -37 c0 -7 10 -20 22 -28 l22 -16 -22 0 c-14 0 -27 10 -37 30
-20 39 -20 57 0 40 8 -7 15 -18 15 -26z m220 27 c0 -5 -7 -14 -15 -21 -12 -10
-15 -10 -15 2 0 8 3 18 7 21 9 10 23 9 23 -2z m50 -10 c0 -12 -20 -25 -27 -18
-7 7 6 27 18 27 5 0 9 -4 9 -9z m118 -9 c2 -6 -9 -24 -25 -39 -24 -25 -28 -26
-31 -10 -8 39 44 84 56 49z m-231 -120 c16 -63 26 -127 27 -182 1 -84 0 -86
-61 -215 -34 -71 -65 -142 -68 -156 -7 -28 -62 -55 -94 -44 -17 5 -18 10 -9
45 9 36 14 40 42 40 33 0 76 23 64 35 -6 6 -29 12 -52 14 -10 1 -2 131 13 206
6 28 7 100 4 160 l-6 110 49 57 c57 66 55 68 91 -70z m438 107 c0 -7 -8 -15
-17 -17 -18 -3 -25 18 -11 32 10 10 28 1 28 -15z m-125 -6 c-1 -5 -12 -21 -25
-38 -18 -22 -27 -27 -36 -18 -9 9 -5 18 14 37 25 25 47 34 47 19z m70 -8 c11
-13 8 -20 -21 -45 -19 -16 -37 -29 -41 -30 -14 0 -8 17 13 36 11 10 18 26 16
36 -6 22 16 24 33 3z m380 1 c0 -8 -4 -18 -10 -21 -5 -3 -10 3 -10 14 0 12 5
21 10 21 6 0 10 -6 10 -14z m-194 -56 c8 -46 24 -64 24 -26 0 14 5 26 12 26
24 0 -6 -256 -33 -285 -12 -12 -12 77 0 128 11 46 4 48 -15 2 -30 -73 -8 -300
37 -381 36 -65 36 -70 -1 -42 -39 28 -75 101 -97 197 -15 64 -18 71 -21 42 -2
-19 4 -62 14 -97 9 -34 14 -74 12 -89 -5 -26 6 -43 17 -25 12 20 25 10 25 -20
0 -29 -2 -30 -46 -30 -43 0 -46 1 -40 23 12 41 19 116 12 132 -5 14 -9 15 -21
5 -13 -11 -15 -7 -15 25 0 20 6 63 14 94 18 71 27 147 18 156 -4 4 -12 -10
-17 -30 -27 -95 -70 16 -49 124 8 39 25 35 40 -9 l11 -34 7 49 c9 54 50 105
85 105 16 0 22 -8 27 -40z m259 31 c5 -8 -20 -41 -31 -41 -2 0 -4 11 -4 25 0
25 23 35 35 16z m-685 -26 c16 -8 33 -23 39 -32 9 -17 11 -17 25 2 14 19 15
19 33 2 15 -15 18 -33 16 -115 -1 -53 -6 -108 -11 -122 l-10 -25 -11 28 c-6
16 -11 45 -11 65 0 54 -17 75 -25 31 -6 -34 12 -143 39 -234 14 -46 14 -46
-10 -56 -14 -5 -29 -9 -34 -9 -13 0 -44 -49 -36 -57 3 -3 14 1 24 10 10 10 21
17 25 17 3 0 18 -21 33 -46 18 -31 23 -49 16 -56 -11 -11 -52 6 -52 22 0 6 -4
10 -10 10 -5 0 -10 -8 -10 -19 0 -11 -9 -21 -22 -24 -13 -3 -34 -9 -47 -13
-20 -6 -22 -4 -17 14 4 12 2 30 -4 42 -9 17 -7 24 15 43 25 22 25 22 10 77 -8
30 -21 140 -30 245 -15 179 -15 190 1 202 23 16 29 16 64 -2z m-96 -31 c9 -34
-4 -101 -15 -82 -12 17 -11 108 0 108 5 0 12 -12 15 -26z m-204 -108 c-1 -57
-3 -67 -12 -52 -6 11 -13 51 -15 90 -4 66 -3 70 11 52 11 -14 16 -41 16 -90z
m507 46 c30 -19 71 -366 56 -472 l-8 -55 -46 -3 c-29 -2 -50 2 -57 10 -26 32
-33 149 -21 340 l13 188 26 0 c14 0 30 -4 37 -8z m-276 -301 c2 -72 -1 -86
-16 -98 -26 -18 -49 -17 -41 3 3 9 11 48 17 88 6 39 13 82 16 96 9 46 21 -1
24 -89z m549 20 c13 -25 13 -131 0 -131 -18 0 -30 38 -30 94 0 57 11 71 30 37z
m-565 -249 c-2 -2 -12 5 -22 15 -19 19 -19 48 1 72 9 11 12 4 18 -35 4 -26 5
-50 3 -52z m593 76 c14 -14 16 -42 2 -33 -14 9 -32 45 -22 45 4 0 13 -5 20
-12z m277 -2 c33 -14 63 -52 50 -64 -4 -4 -15 3 -25 16 -21 26 -30 28 -30 7 0
-21 -26 -8 -39 21 -6 14 -11 27 -11 29 0 9 20 5 55 -9z m-1145 -15 c0 -17 -12
-41 -21 -41 -10 0 -12 33 -2 43 9 10 23 9 23 -2z m220 0 c0 -10 -30 -24 -37
-17 -3 3 -2 9 2 15 8 13 35 15 35 2z m730 -35 c0 -8 -4 -18 -10 -21 -5 -3 -10
3 -10 14 0 12 5 21 10 21 6 0 10 -6 10 -14z m-980 -42 c0 -8 -4 -14 -10 -14
-5 0 -10 9 -10 21 0 11 5 17 10 14 6 -3 10 -13 10 -21z m680 -40 c0 -11 6 -14
20 -9 14 4 22 1 26 -10 4 -9 17 -21 30 -26 13 -4 24 -15 24 -24 0 -8 4 -15 8
-15 22 0 61 -143 42 -155 -8 -5 -8 -11 0 -20 7 -9 6 -16 -5 -25 -8 -7 -15 -20
-15 -29 0 -25 -60 -83 -114 -111 -44 -22 -161 -26 -169 -6 -4 9 -16 16 -28 16
-11 0 -34 15 -50 33 -16 17 -35 39 -42 47 -8 8 -17 29 -20 45 -3 17 -9 38 -12
48 -5 12 -2 17 11 18 17 1 17 2 1 6 -22 6 -16 37 21 112 18 36 39 62 61 75 72
42 211 62 211 30z m-639 -51 c9 -7 29 -43 44 -78 27 -63 28 -65 65 -65 20 0
58 -3 82 -6 l45 -6 13 52 c13 54 60 120 86 120 21 0 18 -10 -21 -64 -22 -31
-35 -61 -35 -80 0 -26 -7 -35 -35 -50 -50 -27 -46 -53 15 -108 34 -31 50 -53
50 -69 -1 -24 -1 -24 -17 3 -20 32 -182 111 -197 97 -18 -16 -53 -9 -68 13
-14 21 -15 21 -56 -23 -23 -24 -44 -56 -47 -72 -4 -15 -11 -25 -16 -21 -17 10
-9 51 15 73 19 18 24 33 24 67 0 24 3 57 7 74 7 32 -2 90 -14 90 -4 0 -6 -13
-3 -30 5 -35 -12 -40 -28 -9 -13 23 -6 62 15 96 16 23 46 22 76 -4z m865 -8
c4 -15 13 -25 24 -25 12 0 20 -9 22 -22 2 -17 10 -23 28 -23 32 0 41 34 11 42
-17 4 -19 8 -10 19 17 20 27 17 43 -13 13 -25 12 -30 -16 -64 -22 -27 -29 -45
-26 -70 5 -53 28 -49 28 5 0 43 2 47 41 66 23 12 44 19 47 16 15 -16 -60 -296
-79 -296 -5 0 -7 17 -4 38 6 42 3 49 -43 81 -21 15 -31 29 -28 39 3 10 2 44
-2 77 -6 49 -10 60 -25 60 -12 0 -25 16 -38 44 -23 53 -23 51 1 51 13 0 22 -9
26 -25z m-1045 -102 l1 -48 11 43 c5 23 13 42 18 42 12 0 22 -87 16 -142 -10
-78 -22 -80 -36 -7 l-9 44 -1 -38 c-1 -23 -5 -36 -11 -32 -5 3 -10 46 -10 96
0 53 4 89 10 89 6 0 11 -21 11 -47z m1488 -64 c1 -33 -5 -63 -13 -74 -12 -17
-14 -13 -21 42 -6 58 -1 115 13 138 9 14 19 -40 21 -106z m-54 -16 c0 -83 -8
-109 -25 -83 -11 17 -13 143 -3 179 12 45 28 -9 28 -96z m-400 69 c11 -7 35
-70 35 -90 0 -11 -58 -47 -65 -40 -6 6 8 138 14 138 3 0 11 -4 16 -8z m291
-54 c23 -11 25 -17 21 -48 -5 -39 -79 -160 -85 -141 -2 7 7 29 21 49 44 67 45
110 2 62 -10 -11 -27 -20 -37 -20 -16 0 -18 5 -12 38 13 73 33 86 90 60z
m-844 -38 c4 -44 0 -47 -42 -25 -36 19 -36 19 -8 45 32 30 45 25 50 -20z
m-384 -50 c-7 -11 -16 -20 -20 -20 -4 0 -14 -12 -22 -27 -12 -23 -15 -24 -16
-9 0 11 12 33 27 48 31 32 49 37 31 8z m1021 -73 c-8 -29 -37 -62 -46 -53 -6
6 42 93 49 89 3 -2 2 -18 -3 -36z m223 -29 c-9 -9 -12 -4 -11 23 0 32 1 33 11
11 8 -17 8 -26 0 -34z m-956 -155 c-10 -10 -19 5 -10 18 6 11 8 11 12 0 2 -7
1 -15 -2 -18z m44 12 c0 -8 -4 -15 -9 -15 -13 0 -22 16 -14 24 11 11 23 6 23
-9z m30 0 c0 -8 -4 -15 -10 -15 -5 0 -10 7 -10 15 0 8 5 15 10 15 6 0 10 -7
10 -15z m30 0 c0 -8 -4 -15 -10 -15 -5 0 -10 7 -10 15 0 8 5 15 10 15 6 0 10
-7 10 -15z m31 -8 c-13 -13 -26 -3 -16 12 3 6 11 8 17 5 6 -4 6 -10 -1 -17z
m39 14 c0 -6 -4 -13 -10 -16 -5 -3 -10 1 -10 9 0 9 5 16 10 16 6 0 10 -4 10
-9z m30 -6 c0 -8 -4 -15 -10 -15 -5 0 -10 7 -10 15 0 8 5 15 10 15 6 0 10 -7
10 -15z m67 1 c-5 -16 -57 -17 -57 -2 0 7 12 13 30 13 17 0 29 -5 27 -11z m33
5 c0 -6 -4 -13 -10 -16 -5 -3 -10 1 -10 9 0 9 5 16 10 16 6 0 10 -4 10 -9z
m30 -6 c0 -8 -4 -15 -10 -15 -5 0 -10 7 -10 15 0 8 5 15 10 15 6 0 10 -7 10
-15z m30 0 c0 -8 -4 -15 -10 -15 -5 0 -10 7 -10 15 0 8 5 15 10 15 6 0 10 -7
10 -15z m38 -3 c2 -7 -3 -12 -12 -12 -9 0 -16 7 -16 16 0 17 22 14 28 -4z m32
3 c0 -8 -4 -15 -10 -15 -5 0 -10 7 -10 15 0 8 5 15 10 15 6 0 10 -7 10 -15z
m30 0 c0 -8 -4 -15 -10 -15 -5 0 -10 7 -10 15 0 8 5 15 10 15 6 0 10 -7 10
-15z m30 -1 c0 -8 -4 -12 -10 -9 -5 3 -10 10 -10 16 0 5 5 9 10 9 6 0 10 -7
10 -16z m30 0 c0 -8 -5 -12 -10 -9 -6 4 -8 11 -5 16 9 14 15 11 15 -7z m26
-11 c-10 -10 -19 5 -10 18 6 11 8 11 12 0 2 -7 1 -15 -2 -18z m41 1 c-9 -9
-28 6 -21 18 4 6 10 6 17 -1 6 -6 8 -13 4 -17z m33 11 c0 -8 -4 -15 -10 -15
-5 0 -10 7 -10 15 0 8 5 15 10 15 6 0 10 -7 10 -15z"/>
<path d="M1096 2734 c-4 -10 0 -24 9 -33 13 -14 15 -13 15 4 0 11 -4 26 -9 33
-6 11 -10 10 -15 -4z"/>
<path d="M675 2610 c-9 -16 -13 -30 -11 -30 3 0 12 14 21 30 9 17 13 30 11 30
-3 0 -12 -13 -21 -30z"/>
<path d="M430 2240 c0 -14 48 -35 58 -26 8 9 -26 36 -45 36 -7 0 -13 -5 -13
-10z"/>
<path d="M557 1343 c-9 -14 -29 -125 -24 -129 6 -7 24 50 30 99 6 35 3 46 -6
30z"/>
<path d="M904 815 c2 -16 7 -39 11 -50 l6 -20 -15 20 c-42 56 -46 59 -26 18
11 -23 20 -44 20 -47 0 -9 -46 1 -77 18 -48 24 -40 13 12 -21 25 -15 45 -32
45 -36 0 -5 -4 -6 -9 -2 -6 3 -25 -1 -43 -9 l-33 -14 40 -2 40 -2 -55 -18
c-30 -10 -47 -18 -38 -19 9 -1 29 4 43 9 20 8 30 7 41 -4 12 -13 10 -19 -13
-48 l-27 -33 30 28 c41 37 50 34 25 -9 -28 -48 -20 -56 9 -9 12 20 24 34 26
33 2 -2 -3 -26 -11 -53 -8 -26 -13 -50 -11 -52 2 -3 9 13 16 34 17 52 30 64
31 28 1 -24 3 -25 6 -7 6 30 19 28 32 -5 9 -25 10 -23 6 17 l-6 45 21 -37 c19
-35 40 -57 40 -42 0 4 -10 23 -22 43 l-23 36 28 -18 c33 -21 35 -12 5 21 l-23
23 30 -11 c16 -6 35 -16 42 -22 8 -6 16 -8 19 -5 3 3 -14 16 -38 28 -47 24
-37 38 14 20 17 -6 33 -9 36 -7 2 3 -14 10 -37 17 -23 7 -41 15 -41 18 1 16
18 30 50 40 l35 11 -40 -4 -40 -5 35 31 35 30 -42 -21 c-58 -29 -62 -27 -23
14 19 19 29 35 24 35 -5 0 -27 -17 -48 -39 -29 -29 -36 -43 -31 -62 3 -15 -2
-39 -14 -62 l-19 -38 -21 28 c-11 16 -26 34 -32 41 -15 18 27 65 51 57 19 -6
47 20 31 29 -6 4 -6 19 1 42 5 20 7 38 5 41 -3 2 -8 -9 -12 -26 -10 -45 -25
-48 -26 -4 l-2 38 -7 -35 -7 -35 -17 35 c-17 35 -17 35 -12 5z"/>
<path d="M1006 794 c-10 -14 -16 -30 -14 -35 2 -6 11 6 21 25 20 42 16 47 -7
10z"/>
<path d="M840 775 c18 -19 36 -32 39 -30 6 7 -50 65 -63 65 -5 0 5 -16 24 -35z"/>
<path d="M790 715 c46 -18 74 -17 35 0 -16 8 -39 14 -50 14 -13 0 -8 -5 15
-14z"/>
<path d="M930 674 c0 -9 5 -14 12 -12 18 6 21 28 4 28 -9 0 -16 -7 -16 -16z"/>
<path d="M1083 673 c9 -2 23 -2 30 0 6 3 -1 5 -18 5 -16 0 -22 -2 -12 -5z"/>
<path d="M813 609 c-45 -29 -41 -34 7 -9 38 19 50 30 33 30 -5 0 -23 -10 -40
-21z"/>
<path d="M334 808 c7 -13 19 -41 26 -63 16 -50 27 -65 51 -65 24 0 24 -2 -11
72 -30 62 -44 78 -68 78 -10 0 -9 -5 2 -22z"/>
<path d="M270 991 c-6 -12 -7 -21 -1 -21 10 0 24 30 17 37 -2 3 -9 -5 -16 -16z"/>
<path d="M1590 430 c-9 -6 -10 -10 -3 -10 6 0 15 5 18 10 8 12 4 12 -15 0z"/>
<path d="M760 214 c0 -6 7 -17 15 -24 8 -7 15 -16 15 -21 0 -5 -119 -9 -264
-9 -166 0 -267 -4 -271 -10 -4 -6 5 -10 19 -10 23 0 26 -4 26 -34 0 -30 -3
-33 -22 -28 -20 5 -19 3 8 -31 16 -21 35 -37 43 -37 11 0 11 4 -2 18 -26 29
-20 42 18 42 32 0 35 -2 37 -32 1 -18 4 -4 7 32 l6 65 86 3 c67 2 89 -1 98
-12 16 -19 6 -36 -22 -36 -21 -1 -20 -2 7 -26 19 -17 37 -24 53 -21 17 3 23 0
23 -14 0 -11 5 -19 10 -19 6 0 10 28 10 65 l0 65 40 0 c35 0 40 -3 40 -24 0
-15 -7 -26 -20 -29 -14 -3 -20 -14 -20 -31 0 -21 5 -26 24 -26 16 0 27 7 31
20 8 26 57 28 54 3 -1 -10 -1 -25 0 -33 1 -13 2 -13 11 0 5 8 10 39 10 68 l0
52 60 0 c57 0 60 -1 60 -24 0 -13 -9 -34 -19 -47 -19 -23 -20 -23 -38 -6 -17
18 -17 19 1 33 25 18 14 29 -13 14 -12 -6 -21 -19 -21 -29 0 -26 35 -55 60
-48 13 3 20 0 20 -9 0 -8 5 -14 10 -14 6 0 10 28 10 63 0 36 5 68 12 75 9 9
-6 12 -70 12 -80 0 -83 1 -112 33 -16 17 -30 27 -30 21z m-380 -100 c0 -22 -4
-25 -27 -22 -18 2 -27 10 -29 26 -3 19 1 22 26 22 26 0 30 -4 30 -26z m258
-11 c-3 -33 -7 -38 -30 -41 -32 -4 -34 0 -12 33 9 13 13 29 9 35 -3 6 3 10 15
10 18 0 21 -5 18 -37z m170 15 c-2 -15 -11 -24 -25 -26 -19 -3 -23 1 -23 22 0
21 5 26 26 26 21 0 25 -4 22 -22z m-70 -59 c-2 -6 -8 -10 -13 -10 -5 0 -11 4
-13 10 -2 6 4 11 13 11 9 0 15 -5 13 -11z"/>
<path d="M1500 185 l23 -25 -24 -2 c-13 0 -83 0 -156 2 -72 1 -155 -2 -185 -6
l-53 -9 60 -5 c47 -4 61 -9 63 -22 3 -15 -4 -18 -40 -18 -34 -1 -39 -3 -25
-11 9 -5 17 -19 17 -29 0 -28 -34 -26 -53 3 -12 16 -16 18 -16 6 -1 -24 34
-51 61 -47 17 2 24 11 28 33 7 41 24 34 31 -12 5 -34 6 -36 12 -13 3 14 5 43
4 65 -2 39 -1 40 36 43 32 3 37 0 37 -18 0 -12 -9 -24 -20 -28 -18 -7 -19 -10
-7 -26 7 -10 28 -19 48 -21 22 -1 35 -8 37 -19 2 -9 8 -16 13 -16 5 0 9 29 9
65 l0 65 65 0 c55 0 65 -3 65 -17 0 -14 -9 -18 -36 -19 -59 -1 -81 -56 -36
-91 24 -19 26 -8 6 27 -16 27 -17 32 -4 41 8 5 26 8 40 7 21 -3 26 -9 31 -43
5 -38 6 -38 13 -14 4 15 5 40 3 56 -5 34 1 47 23 55 11 4 7 9 -12 16 -15 6
-33 20 -40 32 -7 11 -19 20 -27 20 -10 0 -7 -8 9 -25z m-122 -82 c-3 -33 -7
-38 -30 -41 -27 -3 -38 11 -18 23 6 3 10 17 10 31 0 18 5 24 21 24 17 0 20 -5
17 -37z"/>
<path d="M470 103 c-38 -14 -51 -60 -24 -87 22 -22 40 -9 19 14 -26 29 -15 54
25 60 27 4 31 7 17 13 -10 4 -19 7 -20 6 -1 0 -9 -3 -17 -6z"/>
</g>
</svg>
