<?xml version="1.0" standalone="no"?>
<!DOCTYPE svg PUBLIC "-//W3C//DTD SVG 20010904//EN"
 "http://www.w3.org/TR/2001/REC-SVG-20010904/DTD/svg10.dtd">
<svg version="1.0" xmlns="http://www.w3.org/2000/svg"
 width="241.000000pt" height="209.000000pt" viewBox="0 0 241.000000 209.000000"
 preserveAspectRatio="xMidYMid meet">

<g transform="translate(0.000000,209.000000) scale(0.100000,-0.100000)"
fill="#000000" stroke="none">
<path d="M1045 2065 c-369 -58 -692 -327 -811 -677 -78 -229 -72 -505 15 -723
107 -267 343 -497 606 -592 172 -62 376 -78 540 -44 418 88 728 388 821 796
25 110 25 341 0 440 -34 135 -77 241 -135 330 -227 354 -627 535 -1036 470z
m331 -16 c267 -48 504 -196 658 -413 61 -84 131 -233 157 -331 30 -114 37
-332 14 -446 -21 -103 -48 -184 -92 -272 -36 -72 -47 -78 -97 -52 -16 9 -31
13 -33 11 -2 -2 14 -12 36 -22 23 -10 41 -22 41 -26 0 -17 -79 -116 -145 -181
-158 -155 -351 -247 -594 -283 -112 -17 -169 -14 -301 12 -175 36 -378 133
-319 153 11 3 20 13 55 56 8 11 13 14 9 8 -8 -16 0 -16 28 -1 28 15 77 21 77
8 0 -23 -47 -62 -77 -64 -17 -1 -35 -5 -39 -9 -4 -4 -16 -7 -26 -7 -10 0 -18
-4 -18 -9 0 -9 57 1 102 18 19 7 25 6 25 -4 0 -8 -4 -12 -9 -9 -4 3 -8 3 -8 1
0 -3 16 -15 36 -26 30 -18 35 -19 30 -5 -3 9 17 -5 45 -30 28 -25 56 -46 62
-46 6 0 2 7 -9 16 -19 15 -18 15 3 9 24 -7 103 11 103 23 0 4 -7 18 -16 30 -9
13 -14 25 -13 26 2 2 27 8 54 14 47 9 46 10 -23 4 -44 -3 -77 -1 -80 5 -4 5
-16 15 -27 21 -16 9 -5 11 61 12 93 0 120 13 112 53 -3 15 -1 24 3 21 5 -3 9
-15 9 -27 0 -19 39 -87 70 -124 13 -16 56 -17 66 -1 4 7 3 8 -4 4 -7 -4 -12
-1 -13 6 0 10 -2 10 -6 1 -6 -17 -28 -16 -43 2 -7 8 -8 15 -2 15 18 0 33 56
29 106 l-3 49 -2 -53 c-1 -29 -7 -63 -13 -74 -11 -20 -12 -20 -35 7 -26 30
-30 55 -13 72 13 13 4 33 -17 33 -12 0 -16 12 -13 36 1 12 -26 24 -54 24 -18
0 -39 11 -57 29 -16 16 -32 26 -35 23 -3 -4 -10 0 -15 8 -8 12 -10 10 -10 -8
0 -15 4 -21 13 -17 6 4 3 -1 -8 -10 -19 -15 -20 -15 -26 17 l-6 33 -2 -32 c-1
-38 -16 -43 -27 -10 l-8 22 -6 -25 c-4 -16 -13 -24 -24 -24 -9 1 -15 -1 -12
-4 10 -9 -26 -42 -45 -42 -10 0 -20 -4 -23 -9 -8 -13 -191 -121 -205 -121 -7
0 -11 6 -10 13 4 32 -3 57 -22 78 -19 23 -20 23 -10 2 6 -12 11 -34 10 -50 0
-22 -3 -18 -15 21 -9 26 -17 46 -20 43 -2 -2 0 -17 6 -32 6 -15 9 -29 7 -31
-7 -7 -113 95 -145 140 l-33 46 57 37 c76 52 77 52 267 143 92 44 177 80 190
80 12 -1 40 -17 62 -36 28 -25 33 -32 15 -24 -38 18 34 -43 90 -76 106 -63
149 -96 158 -122 6 -15 13 -36 18 -46 5 -14 4 -17 -5 -11 -11 6 -11 3 -1 -16
18 -35 23 -38 16 -9 -5 18 -1 15 13 -10 10 -20 24 -61 29 -91 8 -41 19 -65 42
-88 17 -17 32 -31 33 -31 2 0 3 24 3 53 0 28 -1 42 -4 29 -2 -13 -8 -19 -14
-16 -7 5 -8 2 -3 -6 5 -9 4 -11 -3 -6 -7 4 -12 18 -12 32 0 22 4 24 51 24 l52
0 -6 35 c-6 34 -4 36 34 51 39 16 48 28 29 37 -6 3 -5 4 2 3 7 -2 12 -12 10
-22 -12 -78 -13 -108 -3 -94 6 8 8 23 5 34 -4 11 -2 16 4 12 10 -6 15 13 28
107 5 35 14 53 34 70 52 42 89 128 53 123 -21 -3 -33 -26 -33 -62 0 -26 -4
-30 -22 -28 -34 4 -34 4 -16 17 10 8 15 25 14 44 -1 18 2 31 7 30 6 -1 10 17
11 40 1 46 0 45 -32 -8 -12 -20 -18 -40 -14 -44 4 -5 1 -5 -5 -1 -7 4 -22 2
-33 -4 -16 -9 -18 -8 -14 5 4 10 0 15 -12 16 -11 0 -14 3 -6 6 6 2 12 9 12 14
0 6 -8 6 -19 -1 -27 -14 -26 -15 -26 27 l0 38 -50 0 c-41 0 -50 -3 -49 -17 1
-10 -2 -15 -7 -12 -5 3 -9 11 -9 17 0 7 -9 19 -19 26 -16 12 -19 24 -15 68 3
49 23 109 24 75 0 -21 17 -4 22 23 6 30 -27 89 -44 79 -7 -4 -8 -3 -4 5 8 12
0 21 -62 70 -70 55 -112 81 -112 71 0 -6 4 -10 8 -10 11 0 34 -49 28 -58 -2
-4 -35 -6 -73 -5 -37 1 -83 -2 -101 -8 -23 -8 -37 -8 -46 0 -7 6 -15 9 -17 6
-3 -2 -6 10 -7 28 -3 32 62 177 78 177 5 0 8 22 6 49 -2 42 -7 53 -41 85 -36
35 -115 65 -115 45 0 -5 -20 -9 -45 -9 -47 0 -54 -7 -32 -29 10 -11 9 -13 -4
-8 -9 3 -16 0 -17 -6 0 -7 -5 -25 -10 -42 -10 -29 -10 -29 -11 -5 -2 39 -12
70 -24 70 -22 0 -47 -34 -48 -64 0 -30 -1 -30 -11 -8 -16 33 -29 27 -26 -13 2
-29 6 -35 33 -41 16 -3 35 -10 41 -15 8 -6 18 -3 30 8 17 17 18 17 10 -2 -12
-27 -25 -103 -36 -204 -11 -102 11 -293 41 -355 23 -47 22 -46 6 -46 -8 0 -47
-17 -88 -39 -41 -21 -85 -42 -99 -46 -14 -4 -42 -20 -62 -36 -20 -16 -40 -29
-43 -29 -4 0 -20 -9 -37 -21 -28 -21 -30 -21 -43 -3 -29 37 -103 191 -123 254
-117 359 -26 749 237 1023 142 148 344 257 546 295 70 14 280 14 351 1z m-445
-735 c12 -12 19 -28 17 -34 -2 -6 -18 4 -36 23 -22 22 -28 34 -18 34 9 0 25
-11 37 -23z m-21 -29 c39 -40 38 -40 -20 -20 -23 8 -53 15 -66 15 -26 0 -30
10 -12 28 23 23 63 13 98 -23z m-33 -31 c-3 -3 -12 -4 -19 -1 -8 3 -5 6 6 6
11 1 17 -2 13 -5z m47 -15 l25 -12 -24 -29 c-14 -16 -25 -35 -25 -41 0 -29
-46 -107 -63 -107 -10 0 -16 -4 -12 -9 3 -5 1 -12 -5 -16 -6 -4 -8 -11 -5 -16
4 -5 1 -9 -5 -9 -6 0 -9 -4 -6 -9 4 -5 -3 -7 -14 -4 -11 3 -25 14 -31 24 -11
22 -34 26 -26 5 6 -16 -19 -30 -28 -16 -4 6 -2 10 3 10 4 0 18 18 30 40 17 33
18 40 6 40 -28 0 -10 33 26 46 19 7 28 13 19 13 -9 1 -23 9 -30 19 -13 15 -12
16 3 4 18 -14 43 -7 33 9 -4 5 13 9 37 9 24 0 50 5 58 10 11 7 5 8 -19 5 -35
-4 -71 8 -71 25 0 5 21 11 48 13 26 2 48 4 49 5 1 1 13 -3 27 -9z m-164 -33
c0 -2 -7 -9 -15 -16 -13 -11 -14 -10 -9 4 5 14 24 23 24 12z m-46 -171 c-4 -8
-8 -15 -10 -15 -2 0 -4 7 -4 15 0 8 4 15 10 15 5 0 7 -7 4 -15z m516 -45 c21
-43 37 -135 21 -125 -34 21 -160 45 -233 45 -55 0 -78 3 -68 9 8 6 17 8 21 5
4 -2 22 11 40 31 18 19 46 37 63 40 49 10 84 26 90 41 8 22 44 -3 66 -46z
m-102 -96 c12 -4 22 -11 22 -16 0 -6 -9 -7 -22 -3 -13 4 -39 8 -60 8 -20 1
-34 5 -32 9 6 9 60 10 92 2z m10 -43 c7 0 11 -5 7 -10 -3 -6 10 -5 31 0 19 6
49 7 65 4 27 -6 29 -10 29 -55 0 -27 6 -55 13 -62 7 -7 21 -26 31 -43 19 -29
19 -29 1 -15 -17 14 -18 13 -12 -2 4 -12 2 -18 -8 -18 -8 0 -15 -4 -15 -10 0
-5 -11 -10 -23 -10 -13 0 -27 -3 -31 -7 -17 -17 -91 -10 -121 12 -16 12 -39
25 -49 29 -16 5 -17 4 -6 -9 26 -32 -16 -15 -49 19 -36 37 -34 56 4 56 16 0
23 4 19 13 -3 8 1 14 8 15 24 1 92 30 95 39 2 5 -29 9 -69 8 -65 -2 -138 14
-138 30 0 16 115 25 218 16z m-328 -86 c-7 -9 -15 -13 -17 -11 -6 6 20 36 26
30 2 -2 -2 -10 -9 -19z m251 -150 c105 -49 142 -73 212 -136 38 -35 78 -70 89
-77 10 -7 18 -24 18 -38 0 -14 4 -23 10 -19 9 5 40 -43 40 -63 0 -12 -32 -11
-49 2 -11 8 -13 8 -7 -1 4 -7 3 -13 -2 -13 -13 0 -40 42 -48 75 -4 18 -17 32
-35 39 -20 7 -34 23 -45 52 -18 47 -54 79 -161 142 -62 36 -95 62 -80 62 3 0
29 -11 58 -25z m514 -115 c-3 -5 -10 -10 -16 -10 -5 0 -9 5 -9 10 0 6 7 10 16
10 8 0 12 -4 9 -10z m-37 -60 c-9 -35 -14 -40 -40 -40 -17 0 -27 4 -23 10 4 6
-6 10 -22 11 l-28 1 30 13 c17 8 23 15 15 16 -8 0 5 7 30 14 25 7 46 13 46 14
1 1 -3 -17 -8 -39z m-578 -55 c0 -1 -11 -5 -25 -7 -20 -4 -23 -2 -14 8 8 10
39 10 39 -1z m480 -5 c0 -5 -5 -10 -11 -10 -5 0 -7 -4 -4 -10 9 -14 -8 -13
-23 2 -19 19 -14 28 13 28 14 0 25 -4 25 -10z m40 -6 c0 -8 -19 -13 -24 -6 -3
5 1 9 9 9 8 0 15 -2 15 -3z m-347 -117 c-9 -14 -23 4 -23 31 l1 27 13 -25 c8
-14 12 -28 9 -33z m197 -9 c0 -5 -4 -8 -10 -8 -5 0 -10 10 -10 23 0 18 2 19
10 7 5 -8 10 -18 10 -22z m-420 2 c19 12 38 13 25 1 -6 -4 -24 -13 -42 -19
-32 -10 -32 -10 -20 15 8 19 12 21 17 9 3 -11 9 -13 20 -6z m-180 -9 c0 -14
-41 -41 -62 -41 -25 0 -23 16 4 34 25 18 58 21 58 7z"/>
<path d="M1560 1826 c0 -2 8 -10 18 -17 15 -13 16 -12 3 4 -13 16 -21 21 -21
13z"/>
<path d="M1550 1803 c1 -12 39 -79 40 -70 0 12 -28 77 -34 77 -4 0 -6 -3 -6
-7z"/>
<path d="M1222 1786 c7 -8 15 -12 17 -11 5 6 -10 25 -20 25 -5 0 -4 -6 3 -14z"/>
<path d="M1206 1721 l-30 -36 34 32 c19 18 32 34 29 36 -2 2 -17 -12 -33 -32z"/>
<path d="M1451 1744 c0 -11 3 -14 6 -6 3 7 2 16 -1 19 -3 4 -6 -2 -5 -13z"/>
<path d="M872 1731 c-8 -4 -14 -12 -15 -17 -1 -5 -8 -8 -14 -6 -14 3 -16 -8
-7 -32 6 -15 8 -15 20 1 13 17 13 17 14 -1 0 -18 1 -18 19 2 10 12 23 22 29
22 8 0 22 22 22 36 0 7 -55 4 -68 -5z"/>
<path d="M1223 1678 c-28 -31 -43 -62 -43 -90 0 -18 -2 -20 -10 -8 -8 13 -11
13 -22 -2 -7 -9 -24 -18 -38 -20 -14 -2 15 -4 63 -3 78 0 91 -3 106 -21 9 -11
41 -32 71 -47 30 -14 65 -34 78 -43 12 -9 22 -14 22 -11 0 3 -19 18 -43 34
-24 15 -43 31 -44 36 -1 4 -3 11 -6 15 -2 4 -2 1 0 -6 2 -10 -4 -11 -20 -6
-29 9 -45 22 -52 44 -4 12 -13 17 -25 15 -10 -2 -23 2 -28 8 -11 15 -24 89
-14 83 4 -2 12 7 19 20 14 30 12 30 -14 2z m-17 -75 c-11 -11 -17 4 -9 23 7
18 8 18 11 1 2 -10 1 -21 -2 -24z m4 -23 c0 -5 -2 -10 -4 -10 -3 0 -8 5 -11
10 -3 6 -1 10 4 10 6 0 11 -4 11 -10z"/>
<path d="M1156 1682 c-3 -5 1 -9 9 -9 8 0 12 4 9 9 -3 4 -7 8 -9 8 -2 0 -6 -4
-9 -8z"/>
<path d="M1290 1665 c-7 -9 -11 -17 -9 -20 3 -2 10 5 17 15 14 24 10 26 -8 5z"/>
<path d="M1140 1648 c0 -9 5 -20 10 -23 13 -8 13 5 0 25 -8 13 -10 13 -10 -2z"/>
<path d="M1167 1643 c3 -7 6 -13 8 -13 2 0 5 6 8 13 3 8 -1 14 -8 14 -7 0 -11
-6 -8 -14z"/>
<path d="M1018 1643 c7 -3 16 -2 19 1 4 3 -2 6 -13 5 -11 0 -14 -3 -6 -6z"/>
<path d="M1493 1628 c-15 -20 -25 -38 -20 -38 3 0 12 11 21 25 17 26 16 35 -1
13z"/>
<path d="M1271 1614 c0 -11 3 -14 6 -6 3 7 2 16 -1 19 -3 4 -6 -2 -5 -13z"/>
<path d="M988 1603 c7 -3 16 -2 19 1 4 3 -2 6 -13 5 -11 0 -14 -3 -6 -6z"/>
<path d="M1302 1580 c0 -19 2 -27 5 -17 2 9 2 25 0 35 -3 9 -5 1 -5 -18z"/>
<path d="M1028 1593 c6 -2 18 -2 25 0 6 3 1 5 -13 5 -14 0 -19 -2 -12 -5z"/>
<path d="M1342 1565 c0 -16 2 -22 5 -12 2 9 2 23 0 30 -3 6 -5 -1 -5 -18z"/>
<path d="M1522 1508 c-7 -45 -10 -83 -8 -86 3 -2 8 18 11 45 4 26 11 65 15 86
4 20 5 37 0 37 -4 0 -12 -37 -18 -82z"/>
<path d="M1851 1580 c0 -3 6 -27 14 -55 8 -30 14 -40 14 -25 0 20 -26 97 -28
80z"/>
<path d="M953 1553 c9 -2 25 -2 35 0 9 3 1 5 -18 5 -19 0 -27 -2 -17 -5z"/>
<path d="M1461 1544 c0 -11 3 -14 6 -6 3 7 2 16 -1 19 -3 4 -6 -2 -5 -13z"/>
<path d="M1582 1540 c0 -14 2 -19 5 -12 2 6 2 18 0 25 -3 6 -5 1 -5 -13z"/>
<path d="M1010 1546 c0 -2 18 -6 39 -8 22 -2 37 0 35 4 -5 8 -74 11 -74 4z"/>
<path d="M825 1512 c-8 -22 0 -25 27 -11 12 7 43 16 68 20 40 6 38 6 -22 6
-50 0 -69 -4 -73 -15z"/>
<path d="M664 1468 c-5 -8 76 -1 84 7 3 3 -14 4 -37 2 -24 -1 -45 -5 -47 -9z"/>
<path d="M659 1439 c-24 -14 31 -20 58 -5 l28 14 -38 -1 c-20 0 -42 -4 -48 -8z"/>
<path d="M1196 1403 c-3 -10 -24 -28 -46 -41 -34 -19 -39 -26 -30 -42 5 -10
10 -30 10 -43 0 -20 4 -23 24 -20 18 4 26 0 31 -17 4 -12 4 -24 1 -27 -3 -4 3
-13 15 -21 15 -10 24 -11 32 -3 6 6 29 12 52 12 l40 1 -35 8 c-19 4 -46 12
-60 18 -23 10 -20 11 25 13 28 1 66 1 85 -1 19 -1 32 2 27 6 -12 13 -80 34
-109 34 -17 0 -28 5 -28 14 0 20 55 39 87 31 41 -10 114 -55 108 -66 -4 -5 5
-9 19 -9 14 0 26 4 26 10 0 18 -34 50 -53 50 -10 0 -16 4 -13 8 3 5 -14 18
-37 30 -33 17 -44 18 -56 9 -12 -10 -13 -9 -3 10 10 17 9 22 -6 29 -33 14 -65
15 -75 2 -6 -9 -7 -8 -3 5 3 11 0 17 -9 17 -7 0 -16 -8 -19 -17z"/>
<path d="M1483 1404 c10 -12 23 -49 30 -82 8 -37 22 -71 36 -86 14 -15 21 -31
17 -41 -4 -10 -2 -14 5 -9 7 4 9 -1 5 -17 -3 -13 -3 -18 0 -11 5 10 9 10 20 1
8 -6 11 -15 8 -20 -3 -5 -1 -9 5 -9 14 0 23 18 12 25 -6 3 -8 12 -4 21 3 8 8
13 11 10 8 -8 42 35 36 45 -3 5 -7 9 -10 9 -3 0 -3 -4 0 -9 3 -5 -1 -11 -9
-14 -11 -5 -12 -1 -5 16 4 12 12 21 17 20 5 -1 9 7 9 18 0 19 -1 20 -13 2 -8
-10 -20 -26 -28 -35 -8 -10 -12 -24 -9 -32 3 -8 1 -17 -5 -20 -19 -12 -24 59
-7 99 19 46 19 46 1 39 -8 -3 -18 -22 -21 -42 -6 -33 -8 -34 -15 -14 -11 30
-17 28 -13 -5 l4 -28 -15 30 c-8 17 -14 57 -15 90 0 41 -3 55 -10 45 -7 -12
-12 -11 -32 5 l-23 20 18 -21z"/>
<path d="M1350 1385 c0 -9 6 -12 15 -9 8 4 12 10 9 15 -8 14 -24 10 -24 -6z"/>
<path d="M1540 1333 c0 -43 5 -41 13 5 4 18 2 32 -3 32 -6 0 -10 -16 -10 -37z"/>
<path d="M1572 1325 c-6 -14 -8 -25 -3 -25 8 0 23 41 17 47 -1 2 -8 -8 -14
-22z"/>
<path d="M587 1313 c-5 -18 -18 -44 -29 -59 -23 -28 -17 -55 14 -60 15 -2 18
32 4 55 -4 5 1 14 10 19 11 6 14 19 12 43 l-3 34 -8 -32z m-20 -95 c-3 -7 -5
-2 -5 12 0 14 2 19 5 13 2 -7 2 -19 0 -25z"/>
<path d="M1705 1184 c-9 -14 -14 -28 -12 -31 3 -3 13 9 22 26 19 38 14 41 -10
5z"/>
<path d="M1738 1193 c-24 -28 -39 -61 -30 -67 5 -3 19 13 31 36 23 44 23 58
-1 31z"/>
<path d="M1260 1170 c8 -5 24 -9 35 -9 l20 0 -20 9 c-11 5 -27 9 -35 9 -13 1
-13 0 0 -9z"/>
<path d="M1672 1160 c0 -14 2 -19 5 -12 2 6 2 18 0 25 -3 6 -5 1 -5 -13z"/>
<path d="M1797 1080 c-53 -10 -64 -23 -47 -55 13 -23 15 -24 23 -8 14 27 38
43 66 44 23 0 24 1 6 8 -19 8 -18 9 5 13 17 4 19 5 5 5 -11 1 -37 -3 -58 -7z"/>
<path d="M1690 1080 c-7 -31 -6 -41 5 -50 20 -16 25 2 9 30 -7 14 -14 23 -14
20z"/>
<path d="M1565 1040 c3 -5 8 -10 11 -10 2 0 4 5 4 10 0 6 -5 10 -11 10 -5 0
-7 -4 -4 -10z"/>
<path d="M1802 1034 c-25 -18 -29 -31 -7 -31 8 0 13 3 10 5 -3 3 2 14 12 24
20 22 15 23 -15 2z"/>
<path d="M1700 984 c0 -14 4 -23 9 -19 5 3 3 -12 -6 -34 -11 -29 -12 -44 -5
-57 10 -16 11 -15 9 10 -2 29 -1 30 61 38 9 1 9 5 2 12 -5 5 -10 20 -10 32 0
12 -7 27 -15 34 -13 11 -14 10 -9 -5 5 -13 3 -16 -7 -13 -8 3 -13 11 -11 17 1
6 -2 11 -8 11 -5 0 -10 -12 -10 -26z"/>
<path d="M1681 828 c0 -15 -8 -46 -17 -68 -9 -23 -14 -44 -10 -47 3 -4 6 -1 6
6 0 7 5 9 12 5 7 -4 8 -3 4 5 -4 6 -2 18 4 26 7 8 9 15 5 15 -4 0 -3 6 2 13 5
6 6 26 2 42 l-7 30 -1 -27z"/>
<path d="M1695 780 c-4 -6 9 -10 31 -10 42 0 42 4 2 14 -15 3 -30 2 -33 -4z"/>
<path d="M1815 773 c-11 -3 -24 -9 -29 -14 -6 -5 -18 -9 -27 -9 -23 0 -44 -26
-28 -35 6 -4 15 -1 20 6 5 8 9 10 9 5 0 -6 5 -5 12 2 7 7 20 12 31 12 10 0 15
5 12 10 -3 6 1 10 9 10 9 0 16 5 16 10 0 6 -1 9 -2 9 -2 -1 -12 -3 -23 -6z"/>
<path d="M1687 752 c-6 -11 8 -58 14 -47 15 27 17 44 4 49 -8 3 -16 2 -18 -2z"/>
<path d="M1829 743 c-1 -5 -1 -12 0 -16 1 -5 -3 -6 -9 -2 -14 9 -52 -4 -45
-16 3 -5 -1 -6 -9 -3 -9 3 -16 2 -16 -4 0 -5 12 -13 26 -16 34 -9 81 19 65 38
-6 7 -8 16 -4 19 3 4 3 7 0 7 -4 0 -8 -3 -8 -7z"/>
<path d="M913 663 c9 -2 23 -2 30 0 6 3 -1 5 -18 5 -16 0 -22 -2 -12 -5z"/>
<path d="M1788 663 c-10 -3 -18 -9 -18 -14 0 -13 33 -11 54 4 16 12 16 13 -1
13 -10 1 -26 -1 -35 -3z"/>
<path d="M868 653 c7 -3 16 -2 19 1 4 3 -2 6 -13 5 -11 0 -14 -3 -6 -6z"/>
<path d="M1505 620 c3 -5 8 -10 11 -10 2 0 4 5 4 10 0 6 -5 10 -11 10 -5 0 -7
-4 -4 -10z"/>
<path d="M908 583 c6 -2 18 -2 25 0 6 3 1 5 -13 5 -14 0 -19 -2 -12 -5z"/>
<path d="M971 587 c2 -1 13 -9 24 -17 19 -14 19 -14 6 3 -7 9 -18 17 -24 17
-6 0 -8 -1 -6 -3z"/>
<path d="M1660 567 c0 -25 12 -45 59 -96 33 -36 44 -42 66 -37 14 4 25 13 25
20 0 8 3 21 6 29 6 15 -3 16 -61 4 -22 -5 -68 26 -71 48 -1 7 -7 21 -13 32
-10 17 -10 17 -11 0z m135 -87 c-3 -5 -12 -10 -18 -10 -7 0 -6 4 3 10 19 12
23 12 15 0z"/>
<path d="M1856 571 c-3 -4 6 -6 19 -3 14 2 25 6 25 8 0 8 -39 4 -44 -5z"/>
<path d="M1918 563 c7 -3 16 -2 19 1 4 3 -2 6 -13 5 -11 0 -14 -3 -6 -6z"/>
<path d="M1040 546 c0 -2 7 -7 16 -10 8 -3 12 -2 9 4 -6 10 -25 14 -25 6z"/>
<path d="M1080 524 c0 -7 71 -36 76 -31 2 2 -14 11 -36 20 -22 8 -40 13 -40
11z"/>
<path d="M925 470 c10 -11 20 -20 23 -20 3 0 -3 9 -13 20 -10 11 -20 20 -23
20 -3 0 3 -9 13 -20z"/>
<path d="M1191 464 c13 -17 26 -30 28 -27 3 2 -8 16 -24 31 l-28 27 24 -31z"/>
<path d="M1721 353 c-10 -26 -10 -27 4 -9 8 11 15 23 15 28 0 15 -7 8 -19 -19z"/>
<path d="M1689 303 c-13 -16 -12 -17 4 -4 16 13 21 21 13 21 -2 0 -10 -8 -17
-17z"/>
<path d="M1578 253 c7 -3 16 -2 19 1 4 3 -2 6 -13 5 -11 0 -14 -3 -6 -6z"/>
<path d="M1528 243 c7 -3 16 -2 19 1 4 3 -2 6 -13 5 -11 0 -14 -3 -6 -6z"/>
<path d="M1372 110 c0 -19 2 -27 5 -17 2 9 2 25 0 35 -3 9 -5 1 -5 -18z"/>
<path d="M1035 65 c17 -8 37 -14 45 -14 8 0 -1 7 -20 14 -46 18 -64 17 -25 0z"/>
<path d="M840 1150 c0 -13 11 -13 30 0 12 8 11 10 -7 10 -13 0 -23 -4 -23 -10z"/>
<path d="M1000 830 c-12 -7 -10 -9 7 -7 12 0 19 5 17 9 -6 10 -6 10 -24 -2z"/>
<path d="M1108 823 c7 -3 16 -2 19 1 4 3 -2 6 -13 5 -11 0 -14 -3 -6 -6z"/>
</g>
</svg>
